<svg xmlns="http://www.w3.org/2000/svg" width="273" height="273" viewBox="0 0 273 273">
  <defs>
    <style>
      .cls-1 {
        fill: #2b96d9;
      }

      .cls-2 {
        fill: #2d4be1;
      }

      .cls-3 {
        fill: #5ebbf6;
      }

      .cls-4 {
        fill: #5ce1ad;
      }

      .cls-1, .cls-2, .cls-3, .cls-4 {
        fill-rule: evenodd;
      }
    </style>
  </defs>
  <path class="cls-1" d="M105.55,136.328L216.6,247.379a15,15,0,0,1,0,21.213l-0.006.006a15,15,0,0,1-21.213,0L84.331,157.548Z"/>
  <path class="cls-2" d="M268.584,56.392L268.59,56.4a15,15,0,0,1,0,21.213L77.611,268.59a15,15,0,0,1-21.213,0l-0.006-.006a15,15,0,0,1,0-21.213L247.371,56.392A15,15,0,0,1,268.584,56.392Z"/>
  <path class="cls-3" d="M77.619,4.4L268.6,195.381a15,15,0,0,1,0,21.213l-0.006.006a15,15,0,0,1-21.213,0L56.4,25.621a15,15,0,0,1,0-21.213L56.406,4.4A15,15,0,0,1,77.619,4.4Z"/>
  <path class="cls-4" d="M216.586,4.394L216.592,4.4a15,15,0,0,1,0,21.213L25.614,216.592a15,15,0,0,1-21.213,0l-0.006-.006a15,15,0,0,1,0-21.213L195.373,4.394A15,15,0,0,1,216.586,4.394Z"/>
  <path class="cls-1" d="M25.621,56.4l95.49,95.489L99.892,173.108,4.4,77.619a15,15,0,0,1,0-21.213L4.408,56.4A15,15,0,0,1,25.621,56.4Z"/>
</svg>
